name Walk6_EMG.mot
datacolumns 17
datarows 27
range 2.13500000 2.16100000
endheader
                time	            vasmed_r	            vaslat_r	            recfem_r	               gra_r	               sar_r	            tibant_r	           perlong_r	            addmag_r	           semimem_r	          bicfemlh_r	            gasmed_r	            gaslat_r	               sol_r	               tfl_r	              gmed_r	              gmax_r	
          2.13500000	          0.08253836	          0.28534544	          0.37977708	          0.21352909	          0.05581900	          0.67327750	          0.11042634	          0.85867791	          0.11951179	          0.23436998	          0.79718355	          0.41456888	          0.78882123	          0.30782033	          0.34316270	          0.37155277	
          2.13600000	          0.07907493	          0.28463376	          0.37539440	          0.21108299	          0.05575291	          0.67552258	          0.10998608	          0.84255230	          0.12503375	          0.23783792	          0.80167301	          0.42013819	          0.79255973	          0.30620782	          0.34688566	          0.37177175	
          2.13700000	          0.07576628	          0.28390741	          0.37127448	          0.20858237	          0.05564883	          0.67728004	          0.10942363	          0.82573928	          0.13069447	          0.24148355	          0.80544836	          0.42564623	          0.79573106	          0.30466779	          0.35071435	          0.37180074	
          2.13800000	          0.07262109	          0.28315764	          0.36742614	          0.20602470	          0.05550886	          0.67856260	          0.10873789	          0.80828176	          0.13645806	          0.24531983	          0.80847281	          0.43104315	          0.79829499	          0.30322316	          0.35464284	          0.37164270	
          2.13900000	          0.06964735	          0.28237474	          0.36386296	          0.20340806	          0.05533511	          0.67938907	          0.10792956	          0.79022617	          0.14228918	          0.24935262	          0.81071524	          0.43627959	          0.80021324	          0.30189804	          0.35866885	          0.37130265	
          2.14000000	          0.06685139	          0.28154965	          0.36059887	          0.20073075	          0.05512973	          0.67978222	          0.10700101	          0.77162227	          0.14815313	          0.25358141	          0.81215057	          0.44130774	          0.80144985	          0.30071500	          0.36279365	          0.37078838	
          2.14100000	          0.06423791	          0.28067586	          0.35764624	          0.19799134	          0.05489490	          0.67976935	          0.10595576	          0.75252262	          0.15401544	          0.25800000	          0.81276034	          0.44608228	          0.80197140	          0.29969320	          0.36701832	          0.37011054	
          2.14200000	          0.06181017	          0.27975004	          0.35501561	          0.19518935	          0.05463283	          0.67938359	          0.10479816	          0.73298142	          0.15984189	          0.26259684	          0.81253377	          0.45056032	          0.80174765	          0.29884907	          0.37134158	          0.36928111	
          2.14300000	          0.05957013	          0.27877150	          0.35271480	          0.19232676	          0.05434588	          0.67866426	          0.10353335	          0.71305301	          0.16559897	          0.26735551	          0.81146753	          0.45470096	          0.80075263	          0.29819776	          0.37576035	          0.36831215	
          2.14400000	          0.05751860	          0.27774164	          0.35074732	          0.18940905	          0.05403658	          0.67765556	          0.10216702	          0.69279077	          0.17125477	          0.27225587	          0.80956358	          0.45846568	          0.79896509	          0.29775283	          0.38026939	          0.36721487	
          2.14500000	          0.05565513	          0.27666313	          0.34911137	          0.18644463	          0.05370752	          0.67640282	          0.10070525	          0.67224652	          0.17677944	          0.27727546	          0.80682768	          0.46181913	          0.79636828	          0.29752421	          0.38485960	          0.36599888	
          2.14600000	          0.05397801	          0.27553905	          0.34780001	          0.18344364	          0.05336131	          0.67494757	          0.09915442	          0.65147080	          0.18214491	          0.28239063	          0.80326975	          0.46472975	          0.79294997	          0.29751649	          0.38951723	          0.36467236	
          2.14700000	          0.05248430	          0.27437168	          0.34680230	          0.18041716	          0.05300049	          0.67332492	          0.09752116	          0.63051329	          0.18732466	          0.28757639	          0.79890393	          0.46717045	          0.78870285	          0.29772934	          0.39422455	          0.36324346	
          2.14800000	          0.05116990	          0.27316172	          0.34610527	          0.17737625	          0.05262753	          0.67156500	          0.09581210	          0.60942302	          0.19229378	          0.29280591	          0.79374774	          0.46911896	          0.78362476	          0.29815919	          0.39896060	          0.36172066	
          2.14900000	          0.05003025	          0.27190864	          0.34569738	          0.17433124	          0.05224474	          0.66969500	          0.09403373	          0.58824842	          0.19702924	          0.29805057	          0.78782144	          0.47055700	          0.77771825	          0.29879974	          0.40370107	          0.36011134	
          2.15000000	          0.04906117	          0.27061164	          0.34557074	          0.17129141	          0.05185435	          0.66773818	          0.09219265	          0.56703724	          0.20150995	          0.30328026	          0.78114765	          0.47146942	          0.77099032	          0.29964208	          0.40841818	          0.35842159	
          2.15100000	          0.04825899	          0.26927018	          0.34571957	          0.16826467	          0.05145850	          0.66571194	          0.09029597	          0.54583654	          0.20571658	          0.30846363	          0.77375066	          0.47184378	          0.76345301	          0.30067637	          0.41308164	          0.35665794	
          2.15200000	          0.04762016	          0.26788389	          0.34613828	          0.16525734	          0.05105922	          0.66362761	          0.08835152	          0.52469258	          0.20963127	          0.31356873	          0.76565532	          0.47167078	          0.75512477	          0.30189332	          0.41766005	          0.35482882	
          2.15300000	          0.04714136	          0.26645262	          0.34682275	          0.16227437	          0.05065847	          0.66149149	          0.08636773	          0.50365067	          0.21323748	          0.31856437	          0.75688707	          0.47094522	          0.74603042	          0.30328343	          0.42212228	          0.35294499	
          2.15400000	          0.04682026	          0.26497627	          0.34777251	          0.15931993	          0.05025811	          0.65930605	          0.08435335	          0.48275504	          0.21652015	          0.32342060	          0.74747296	          0.46966802	          0.73619948	          0.30483518	          0.42643855	          0.35101961	
          2.15500000	          0.04665546	          0.26345511	          0.34899133	          0.15639797	          0.04985988	          0.65707038	          0.08231725	          0.46204872	          0.21946621	          0.32810812	          0.73744289	          0.46784873	          0.72566435	          0.30653399	          0.43058186	          0.34906934	
          2.15600000	          0.04664539	          0.26189056	          0.35048575	          0.15351253	          0.04946540	          0.65477976	          0.08026818	          0.44157348	          0.22206494	          0.33259802	          0.72683181	          0.46550610	          0.71445926	          0.30836176	          0.43452935	          0.34711706	
          2.15700000	          0.04678723	          0.26028527	          0.35226122	          0.15066769	          0.04907614	          0.65242706	          0.07821496	          0.42136974	          0.22430768	          0.33686288	          0.71568275	          0.46266541	          0.70261996	          0.31029722	          0.43826174	          0.34519381	
          2.15800000	          0.04707704	          0.25864217	          0.35431798	          0.14786694	          0.04869346	          0.65000592	          0.07616730	          0.40147636	          0.22618754	          0.34087927	          0.70404682	          0.45935608	          0.69018382	          0.31231707	          0.44176156	          0.34333748	
          2.15900000	          0.04751049	          0.25696358	          0.35665000	          0.14511310	          0.04831866	          0.64751109	          0.07413622	          0.38193011	          0.22769950	          0.34463043	          0.69197913	          0.45561072	          0.67718968	          0.31439764	          0.44501150	          0.34158834	
          2.16000000	          0.04808284	          0.25525076	          0.35924617	          0.14240884	          0.04795300	          0.64493552	          0.07213317	          0.36276523	          0.22884067	          0.34810612	          0.67953549	          0.45146422	          0.66367733	          0.31651589	          0.44799362	          0.33998436	
          2.16100000	          0.04878913	          0.25350463	          0.36209260	          0.13975687	          0.04759793	          0.64226859	          0.07016854	          0.34401320	          0.22961049	          0.35130011	          0.66677196	          0.44695234	          0.64968711	          0.31864995	          0.45068907	          0.33855853	
